PathFileType	4	(X/Y/Z)	/Users/itak/Documents/Research/Walk-IL/dataset/trc/00079_00006.trc
DataRate	CameraRate	NumFrames	NumMarkers	Units	OrigDataRate	OrigDataStartFrame	OrigNumFrames
100.000000	100.000000	4	53	mm	100.000000	461	527
Frame#	Time	RPSI			LPSI			L3			STRN			T10			C7			CLAV			RBAK			LBAK			LSHO			LUPA			LAEL			LAOL			LWTS			LWPS			LFRA			LIFD			LHPS			LHTS			RSHO			RUPA			RAEL			RAOL			RWTS			RWPS			RFRA			RIFD			RHTS			RHPS			RBHD			LFHD			RFHD			LBHD			LHIP			RHIP			RASI			LASI			LKNE			LTHI			LANK			LTIP			LTOE			LMT1			LMT5			LHEE			RKNE			RTHI			RANK			RTIP			RTOE			RMT1			RMT5			RHEE			
		X1	Y1	Z1	X2	Y2	Z2	X3	Y3	Z3	X4	Y4	Z4	X5	Y5	Z5	X6	Y6	Z6	X7	Y7	Z7	X8	Y8	Z8	X9	Y9	Z9	X10	Y10	Z10	X11	Y11	Z11	X12	Y12	Z12	X13	Y13	Z13	X14	Y14	Z14	X15	Y15	Z15	X16	Y16	Z16	X17	Y17	Z17	X18	Y18	Z18	X19	Y19	Z19	X20	Y20	Z20	X21	Y21	Z21	X22	Y22	Z22	X23	Y23	Z23	X24	Y24	Z24	X25	Y25	Z25	X26	Y26	Z26	X27	Y27	Z27	X28	Y28	Z28	X29	Y29	Z29	X30	Y30	Z30	X31	Y31	Z31	X32	Y32	Z32	X33	Y33	Z33	X34	Y34	Z34	X35	Y35	Z35	X36	Y36	Z36	X37	Y37	Z37	X38	Y38	Z38	X39	Y39	Z39	X40	Y40	Z40	X41	Y41	Z41	X42	Y42	Z42	X43	Y43	Z43	X44	Y44	Z44	X45	Y45	Z45	X46	Y46	Z46	X47	Y47	Z47	X48	Y48	Z48	X49	Y49	Z49	X50	Y50	Z50	X51	Y51	Z51	X52	Y52	Z52	X53	Y53	Z53	

462	4.61	608.18505859375	1023.080749511719	-629.3054809570312	433.9429626464844	1017.278137207031	-619.6954345703125	514.1692504882812	1074.729736328125	-626.32080078125	521.914306640625	1285.136596679688	-864.1715698242188	505.2149658203125	1206.953491210938	-600.7347412109375	506.9330444335938	1476.762084960938	-647.4476928710938	519.5701904296875	1398.306396484375	-829.5292358398438	577.2969970703125	1335.045043945312	-585.035400390625	406.3295288085938	1439.839599609375	-631.9569702148438	338.3219299316406	1450.148315429688	-739.1455688476562	257.5289001464844	1322.457763671875	-733.8101806640625	241.4775848388672	1109.072143554688	-766.0214233398438	323.6432189941406	1091.217407226562	-696.0598754882812	308.67626953125	873.3374633789062	-863.967041015625	245.8056030273438	860.2799072265625	-808.4305419921875	234.3511047363281	1001.111755371094	-791.6586303710938	324.5138549804688	686.9568481445312	-880.9056396484375	248.9476165771484	781.570556640625	-843.127685546875	303.6214904785156	790.7349853515625	-888.81884765625	685.8915405273438	1441.440063476562	-701.7056274414062	745.7061157226562	1370.742431640625	-688.570068359375	777.4281616210938	1107.174682617188	-667.4049072265625	684.1926879882812	1085.405517578125	-693.2661743164062	755.8167724609375	862.2997436523438	-825.1135864257812	801.4148559570312	845.2252197265625	-753.5657958984375	787.6832275390625	1028.174072265625	-683.9495849609375	742.2297973632812	673.7680053710938	-841.5488891601562	758.4283447265625	764.2188110351562	-854.7434692382812	808.3187255859375	758.7110595703125	-796.225830078125	459.1351013183594	1654.409057617188	-670.3975830078125	583.4091796875	1702.571166992188	-839.5132446289062	457.3175659179688	1709.006225585938	-840.6651000976562	595.66796875	1641.560180664062	-679.8107299804688	341.8157653808594	958.6590576171875	-725.1512451171875	682.1759643554688	953.4380493164062	-702.8798828125	663.7753295898438	974.8787231445312	-824.4935302734375	393.5509033203125	971.6797485351562	-837.1844482421875	392.2726135253906	496.9442138671875	-805.6715087890625	356.3500366210938	637.2862548828125	-771.7734375	375.4786071777344	45.82840728759766	-679.0255737304688	370.6557006835938	259.0455932617188	-734.692138671875	377.140380859375	39.71963119506836	-885.2500610351562	432.9699401855469	38.52749252319336	-835.54296875	335.5030822753906	38.45441818237305	-780.7683715820312	451.2726745605469	41.6840705871582	-626.4058227539062	642.0155639648438	508.9066162109375	-766.8968505859375	684.1319580078125	778.213134765625	-780.4434814453125	612.4392700195312	37.86563110351562	-668.0064086914062	640.302978515625	387.1140441894531	-741.3399047851562	593.7932739257812	33.25724411010742	-889.0908813476562	548.0531616210938	40.90842056274414	-830.7136840820312	637.5468139648438	39.5792350769043	-789.3102416992188	551.2268676757812	38.80870056152344	-627.9467163085938	
463	4.62	607.947265625	1023.096923828125	-629.655517578125	433.6756896972656	1017.25927734375	-620.2539672851562	513.847412109375	1074.708374023438	-626.8121948242188	521.8758544921875	1285.091674804688	-864.7163696289062	504.9259948730469	1206.97607421875	-601.2288208007812	506.8052368164062	1476.763549804688	-648.0582885742188	519.523193359375	1398.258666992188	-830.0979614257812	577.0573120117188	1335.041625976562	-585.5560913085938	406.0971069335938	1439.885620117188	-632.6727294921875	338.2745971679688	1450.21337890625	-739.8551025390625	257.3243408203125	1322.547729492188	-734.4511108398438	241.1463165283203	1109.147827148438	-766.4818725585938	323.2925109863281	1091.30859375	-696.4556274414062	308.5836486816406	873.4722900390625	-864.40869140625	245.6644439697266	860.3322143554688	-808.9229736328125	234.1102600097656	1001.183166503906	-792.0994262695312	324.5606384277344	687.1052856445312	-881.3872680664062	248.8340911865234	781.6663818359375	-843.6012573242188	303.5144348144531	790.8361206054688	-889.25146484375	685.822509765625	1441.373657226562	-702.2113037109375	745.5740356445312	1370.605102539062	-689.0148315429688	777.0569458007812	1107.007202148438	-668.0654296875	683.8026123046875	1085.291137695312	-693.933349609375	755.1028442382812	861.951904296875	-825.6243896484375	800.8302612304688	845.0925903320312	-754.172607421875	787.2308959960938	1028.026000976562	-684.6171875	741.5973510742188	673.7590942382812	-842.2188720703125	757.7129516601562	763.9982299804688	-855.26025390625	807.6482543945312	758.4845581054688	-796.8010864257812	459.0022277832031	1654.356201171875	-670.9706420898438	583.3814697265625	1702.552368164062	-840.067626953125	457.2615661621094	1708.921997070312	-841.2474975585938	595.6211547851562	1641.595336914062	-680.36279296875	341.76611328125	958.550537109375	-725.7638549804688	682.1812744140625	953.4396362304688	-703.1314697265625	663.709716796875	974.8385620117188	-824.7406005859375	393.5435180664062	971.6171264648438	-837.7789306640625	392.2138061523438	496.8910522460938	-806.071533203125	356.3616027832031	637.1889038085938	-772.23046875	375.5129699707031	45.83090209960938	-679.0330200195312	370.6145324707031	258.9831848144531	-734.929931640625	377.1641540527344	39.71386337280273	-885.2756958007812	432.9819030761719	38.51224136352539	-835.5562133789062	335.5215148925781	38.46155166625977	-780.7802124023438	451.284912109375	41.68553161621094	-626.4212646484375	642.0654296875	508.9591674804688	-767.0562133789062	684.1377563476562	778.2239379882812	-780.6998291015625	612.4060668945312	37.86960601806641	-668.0099487304688	640.228271484375	387.0604248046875	-741.4127197265625	593.810302734375	33.24414443969727	-889.1060791015625	548.0536499023438	40.91039657592773	-830.7168579101562	637.5462646484375	39.57898712158203	-789.3101196289062	551.17724609375	38.83174896240234	-627.9712524414062	
464	4.63	607.7635498046875	1023.127868652344	-629.9216918945312	433.3948059082031	1017.233581542969	-620.812744140625	513.5380249023438	1074.678833007812	-627.2863159179688	521.8314819335938	1285.0380859375	-865.2416381835938	504.6523132324219	1206.986694335938	-601.70654296875	506.6690673828125	1476.756103515625	-648.642578125	519.4754638671875	1398.207153320312	-830.6449584960938	576.81005859375	1335.021484375	-586.0555419921875	405.837158203125	1439.918334960938	-633.3672485351562	338.2325744628906	1450.25244140625	-740.5411376953125	257.0975341796875	1322.627197265625	-735.058837890625	240.80029296875	1109.2080078125	-766.91650390625	322.9589233398438	1091.37451171875	-696.816650390625	308.5202331542969	873.6196899414062	-864.8428955078125	245.5844879150391	860.3701171875	-809.4324340820312	233.8670806884766	1001.240417480469	-792.5267944335938	324.6570129394531	687.2804565429688	-881.9043579101562	248.7511596679688	781.762451171875	-844.1069946289062	303.46435546875	790.9525146484375	-889.695068359375	685.7379150390625	1441.286743164062	-702.6813354492188	745.4400024414062	1370.470092773438	-689.41650390625	776.73046875	1106.853149414062	-668.6364135742188	683.4609375	1085.137573242188	-694.5748901367188	754.430908203125	861.6449584960938	-826.124755859375	800.2826538085938	844.965576171875	-754.771484375	786.8195190429688	1027.863037109375	-685.1924438476562	740.9083862304688	673.7218627929688	-842.9105224609375	757.0262451171875	763.8506469726562	-855.8152465820312	806.9918212890625	758.3016357421875	-797.402099609375	458.8528442382812	1654.305419921875	-671.5381469726562	583.3911743164062	1702.532348632812	-840.6256713867188	457.2045593261719	1708.83056640625	-841.8204956054688	595.5655517578125	1641.62548828125	-680.8977661132812	341.7299499511719	958.4385375976562	-726.377685546875	682.3361206054688	953.4793701171875	-703.20458984375	663.6223754882812	974.7698974609375	-824.9700317382812	393.5325622558594	971.5560913085938	-838.3687133789062	392.1734008789062	496.8500366210938	-806.509765625	356.3916625976562	637.0856323242188	-772.70361328125	375.5586853027344	45.8354606628418	-679.0438842773438	370.5645751953125	258.924072265625	-735.1904907226562	377.1875305175781	39.70590972900391	-885.2985229492188	432.9960327148438	38.49559020996094	-835.5701293945312	335.5426940917969	38.47099685668945	-780.7935180664062	451.3008728027344	41.68959808349609	-626.43310546875	642.1123657226562	508.9919128417969	-767.1632690429688	684.1618041992188	778.2277221679688	-780.9583740234375	612.388427734375	37.87178039550781	-668.00732421875	640.1917114257812	387.0401000976562	-741.453369140625	593.826171875	33.23554611206055	-889.1136474609375	548.058349609375	40.9141845703125	-830.7156982421875	637.5475463867188	39.58011245727539	-789.3108520507812	551.141845703125	38.84246063232422	-627.987548828125	
465	4.64	607.6272583007812	1023.173217773438	-630.1143798828125	433.1170349121094	1017.204528808594	-621.3713989257812	513.2505493164062	1074.645751953125	-627.7454223632812	521.7799072265625	1284.97314453125	-865.7468872070312	504.3910827636719	1206.98486328125	-602.169189453125	506.5273742675781	1476.739013671875	-649.1998901367188	519.427001953125	1398.149658203125	-831.171630859375	576.5690307617188	1334.988525390625	-586.5370483398438	405.548583984375	1439.937744140625	-634.0341796875	338.1909484863281	1450.267211914062	-741.2006225585938	256.8667297363281	1322.693725585938	-735.634521484375	240.4472198486328	1109.25341796875	-767.3280029296875	322.6500549316406	1091.417602539062	-697.15771484375	308.4676818847656	873.7705688476562	-865.2706909179688	245.5702209472656	860.3919677734375	-809.9520874023438	233.6211547851562	1001.283874511719	-792.9468994140625	324.7842102050781	687.4725952148438	-882.4517211914062	248.6954193115234	781.8531494140625	-844.6419677734375	303.4607238769531	791.0787353515625	-890.1507568359375	685.6358642578125	1441.180541992188	-703.1185302734375	745.3084716796875	1370.341064453125	-689.7882080078125	776.448974609375	1106.711303710938	-669.1213989257812	683.1666259765625	1084.966186523438	-695.169677734375	753.815673828125	861.4037475585938	-826.6240844726562	799.7684326171875	844.8324584960938	-755.3585205078125	786.44677734375	1027.68212890625	-685.6781005859375	740.1610107421875	673.6376342773438	-843.60791015625	756.3758544921875	763.781494140625	-856.4112548828125	806.3522338867188	758.1622924804688	-798.024169921875	458.6921691894531	1654.258056640625	-672.1031494140625	583.4332885742188	1702.50634765625	-841.1842041015625	457.1513977050781	1708.734741210938	-842.3850708007812	595.4961547851562	1641.640869140625	-681.4129638671875	341.7200317382812	958.3236694335938	-726.9921875	682.6134033203125	953.5650634765625	-703.1035766601562	663.523681640625	974.6854858398438	-825.2027587890625	393.5181274414062	971.4925537109375	-838.9564819335938	392.1569519042969	496.8178405761719	-806.9767456054688	356.4511413574219	636.9755249023438	-773.1911010742188	375.6215209960938	45.8416748046875	-679.0587768554688	370.5128784179688	258.8685913085938	-735.4686279296875	377.2091369628906	39.69538497924805	-885.3179931640625	433.0138549804688	38.47751998901367	-835.584716796875	335.5677185058594	38.48280334472656	-780.8081665039062	451.3208312988281	41.69606399536133	-626.441650390625	642.1495361328125	509.0047607421875	-767.2247924804688	684.1947021484375	778.2225341796875	-781.2111206054688	612.3821411132812	37.87297058105469	-668.000244140625	640.1881103515625	387.0521240234375	-741.466796875	593.8401489257812	33.2301025390625	-889.1143188476562	548.065673828125	40.9182014465332	-830.71240234375	637.550048828125	39.58245086669922	-789.31201171875	551.1171875	38.84285354614258	-627.9963989257812	
